HIERARCHY
ROOT Hips
{
	OFFSET -0.179506 -22.333345 2.821913
	CHANNELS 6 Xposition Yposition Zposition Zrotation Yrotation Xrotation 
	JOINT LeftUpLeg
	{
		OFFSET 6.951974 -9.140623 -0.681533
		CHANNELS 3 Zrotation Yrotation Xrotation
		JOINT LeftLeg
		{
			OFFSET 3.427654 -37.519855 -0.449580
			CHANNELS 3 Zrotation Yrotation Xrotation
			JOINT LeftFoot
			{
				OFFSET -1.359570 -39.796059 -4.369333
				CHANNELS 3 Zrotation Yrotation Xrotation
				JOINT LeftToe
				{
					OFFSET 2.635814 -5.579078 11.928840
					CHANNELS 3 Zrotation Yrotation Xrotation
					End Site
					{
						OFFSET 0.000000 0.000000 0.000000
					}
				}
			}
		}
	}
	JOINT RightUpLeg
	{
		OFFSET -6.767048 -9.052170 -0.431982
		CHANNELS 3 Zrotation Yrotation Xrotation
		JOINT RightLeg
		{
			OFFSET -3.829005 -38.256897 -0.885003
			CHANNELS 3 Zrotation Yrotation Xrotation
			JOINT RightFoot
			{
				OFFSET 1.577377 -39.841461 -4.231180
				CHANNELS 3 Zrotation Yrotation Xrotation
				JOINT RightToe
				{
					OFFSET -2.537174 -4.814398 12.334795
					CHANNELS 3 Zrotation Yrotation Xrotation
					End Site
					{
						OFFSET 0.000000 0.000000 0.000000
					}
				}
			}
		}
	}
	JOINT Spine
	{
		OFFSET -0.253288 10.896323 -2.669631
		CHANNELS 3 Zrotation Yrotation Xrotation
		JOINT Spine1
		{
			OFFSET 0.548704 13.518043 0.109247
			CHANNELS 3 Zrotation Yrotation Xrotation
			JOINT Spine2
			{
				OFFSET 0.145701 5.292222 2.542457
				CHANNELS 3 Zrotation Yrotation Xrotation
				JOINT Neck
				{
					OFFSET -0.277840 21.387037 -4.285703
					CHANNELS 3 Zrotation Yrotation Xrotation
					JOINT Head
					{
						OFFSET 0.515184 6.496960 5.134897
						CHANNELS 3 Zrotation Yrotation Xrotation
						End Site
						{
							OFFSET 0.000000 0.000000 0.000000
						}
					}
				}
				JOINT LeftShoulder
				{
					OFFSET 7.884473 12.174932 -3.408961
					CHANNELS 3 Zrotation Yrotation Xrotation
					JOINT LeftArm
					{
						OFFSET 9.097692 3.046888 -0.886815
						CHANNELS 3 Zrotation Yrotation Xrotation
						JOINT LeftForeArm
						{
							OFFSET 25.961220 -1.277207 -2.745643
							CHANNELS 3 Zrotation Yrotation Xrotation
							JOINT LeftHand
							{
								OFFSET 24.923361 0.898606 -0.117091
								CHANNELS 3 Zrotation Yrotation Xrotation
								End Site
								{
									OFFSET 0.000000 0.000000 0.000000
								}
							}
						}
					}
				}
				JOINT RightShoulder
				{
					OFFSET -8.175920 11.883285 -3.861528
					CHANNELS 3 Zrotation Yrotation Xrotation
					JOINT RightArm
					{
						OFFSET -9.601238 3.255117 -0.914307
						CHANNELS 3 Zrotation Yrotation Xrotation
						JOINT RightForeArm
						{
							OFFSET -25.374195 -1.332924 -2.140099
							CHANNELS 3 Zrotation Yrotation Xrotation
							JOINT RightHand
							{
								OFFSET -25.529810 0.777228 -0.555919
								CHANNELS 3 Zrotation Yrotation Xrotation
								End Site
								{
									OFFSET 0.000000 0.000000 0.000000
								}
							}
						}
					}
				}
			}
		}
	}
}
MOTION
Frames: 8
Frame Time: 0.033333
4.278937 63.038342 99.294937 67.781116 -48.855194 107.652004 40.180024 16.749978 -38.041846 -16.528801 13.398635 96.326883 -14.069385 -8.393391 -28.279326 nan nan nan -44.811223 -20.208783 -24.811793 -0.437058 -3.281745 17.657846 2.261606 -6.704203 -18.391387 nan nan nan 2.473667 -1.321781 21.299671 -7.666201 -0.604355 -2.064536 -5.811114 -0.242795 -2.114178 -22.284965 18.104323 -0.740886 -8.518136 30.906890 15.215978 -27.117961 -2.250479 8.492234 -35.851923 -0.784742 -9.397293 27.558825 -33.901576 -33.097662 44.637755 -17.063455 -43.607279 13.133990 8.301344 8.336184 31.628761 13.375176 9.556597 161.067163 74.804148 161.772501 -11.777862 25.123714 -59.723203 
4.092916 62.953983 99.172714 68.329328 -48.169107 107.651342 38.896682 17.580468 -40.142849 -15.724328 15.909074 98.242059 -13.988710 -8.879841 -28.118016 nan nan nan -44.039923 -20.591536 -25.177584 -0.184597 -3.863946 17.880338 2.064837 -6.380763 -18.546493 nan nan nan 2.462437 -0.789772 21.056878 -7.552326 -0.585137 -1.970968 -5.767799 -0.109807 -2.265915 -22.203621 18.171498 -0.449989 -8.382303 30.805048 15.274000 -27.229489 -2.592175 8.500966 -36.017082 -0.441288 -9.426161 28.582336 -34.791063 -33.625985 44.287232 -17.194254 -43.324404 13.217414 8.882377 8.494190 31.512700 14.679689 9.206184 160.433759 75.068971 161.839929 -11.140243 25.125978 -58.312420 
3.943323 62.866722 99.072670 69.012207 -47.482684 107.583776 37.475465 18.151672 -42.204781 -15.045402 18.446079 99.748207 -13.787545 -9.455947 -28.064284 nan nan nan -43.408671 -20.770441 -25.400899 0.056839 -4.797211 18.105801 1.997063 -6.003855 -18.755577 nan nan nan 2.541215 -0.306013 20.671079 -7.422361 -0.631408 -1.988310 -5.835773 0.069017 -2.195635 -21.953051 18.143201 -0.057416 -8.472465 30.624617 15.176414 -27.321676 -2.848515 8.433817 -36.218142 -0.336193 -9.362490 29.698356 -35.410775 -34.138674 43.873765 -17.431319 -43.695516 13.356035 9.406756 8.610660 31.451368 15.986038 8.995493 159.990688 75.411510 162.650082 -10.950803 24.933454 -56.696370 
3.810859 62.748055 99.003761 69.864300 -46.693296 107.159507 35.972359 18.505165 -44.056245 -14.547365 20.817509 100.913118 -13.895067 -9.911291 -27.811167 nan nan nan -42.796249 -20.636148 -25.244310 0.276855 -5.955424 18.272244 1.912158 -5.712213 -18.997206 nan nan nan 2.836647 0.016504 20.514286 -7.357888 -0.724583 -1.789980 -5.977154 0.295761 -2.281448 -21.736701 18.053042 0.085575 -8.361153 30.398751 15.273299 -27.352283 -3.183104 8.278187 -36.506271 -0.237751 -9.330482 30.918516 -35.914442 -34.855252 43.616516 -17.768642 -43.950955 13.424605 10.030874 8.636964 31.655483 17.076222 8.829572 159.702504 75.753479 163.692973 -10.822515 24.898068 -54.759140 
3.634181 62.597824 98.916565 70.613122 -45.653542 106.780859 34.506310 18.973966 -45.745699 -14.089013 22.921940 101.747842 -14.103250 -10.363738 -27.447052 nan nan nan -41.885389 -20.419457 -25.167532 0.513914 -7.125559 18.418303 1.777630 -5.480880 -19.298055 nan nan nan 3.241775 0.290458 20.434709 -7.256696 -0.698523 -1.512136 -6.128299 0.575972 -2.426952 -21.342441 18.065671 -0.099111 -8.145985 30.045640 15.837932 -27.260697 -3.522508 7.959466 -36.898781 -0.198013 -9.217619 32.120713 -36.366113 -35.413801 43.477660 -18.269734 -43.267004 13.272835 10.626871 8.348389 32.139501 18.067710 8.885351 159.562560 76.261402 164.624647 -10.554448 25.141953 -53.676981 
3.550797 62.407497 98.822411 71.270456 -44.633162 106.274419 32.826478 19.330576 -46.989560 -13.826980 24.633844 102.057217 -14.006598 -11.154680 -27.098702 nan nan nan -40.959994 -20.420463 -24.870012 0.767210 -8.081227 18.456641 1.622899 -5.164059 -19.679089 nan nan nan 3.654723 0.511510 20.542367 -7.253142 -0.640471 -1.495093 -6.253382 0.807863 -2.446495 -20.978806 18.050044 -0.061244 -8.007946 29.925284 16.206327 -27.177142 -3.779437 7.596830 -37.180143 0.045554 -9.013607 33.187900 -37.035345 -35.853280 43.275387 -18.677651 -42.475369 12.982920 11.330698 8.055794 32.774110 19.009560 9.048293 158.967134 76.876976 164.581684 -10.091857 25.359820 -52.961449 
3.485114 62.205311 98.742729 72.112284 -43.628675 105.569508 31.004522 19.362521 -48.109876 -13.950316 26.100757 101.808781 -13.875559 -11.982106 -26.598674 nan nan nan -40.057262 -20.460916 -24.345576 1.036616 -9.084505 18.426534 1.511525 -5.068013 -20.051337 nan nan nan 4.128398 0.638959 20.660911 -7.291641 -0.679591 -1.624137 -6.361052 1.069976 -2.245742 -20.744238 17.873324 0.028936 -7.861413 29.976799 16.366134 -27.077455 -4.049799 7.252566 -37.410888 0.230279 -8.774045 34.240482 -37.760497 -36.643271 43.212490 -18.599395 -42.309925 12.718239 12.036002 7.737556 33.215058 20.080596 9.060248 157.668169 77.494447 163.818970 -9.522152 25.413615 -52.051866 
3.431786 61.984409 98.685081 72.898481 -42.571033 104.749613 29.157140 19.276571 -48.898290 -14.073674 27.329357 101.198654 -14.093986 -12.773747 -25.721380 nan nan nan -39.084000 -20.269856 -23.735673 1.166612 -10.101559 18.436447 1.395726 -5.161169 -20.416757 nan nan nan 4.685734 0.680226 20.883280 -7.399487 -0.649591 -1.525378 -6.529105 1.305600 -2.083956 -20.418264 17.800823 -0.106421 -7.811568 29.905294 16.624292 -26.884342 -4.224307 6.834157 -37.711325 0.183833 -8.420625 35.065331 -38.081760 -37.287787 43.831345 -19.186866 -43.962697 12.500747 12.666294 7.417115 33.741374 21.232933 9.437055 156.836694 78.132457 163.157615 -9.951822 25.468852 -51.644675 
